HIERARCHY
ROOT Hips
{
	OFFSET -14.64140 90.27770 -84.91600
	CHANNELS 6 Xposition Yposition Zposition Zrotation Xrotation Yrotation
	JOINT Spine
	{
		OFFSET 0.00000 13.20850 -1.60436
		CHANNELS 3 Zrotation Xrotation Yrotation
		JOINT Spine1
		{
			OFFSET 0.00000 8.61716 0.00000
			CHANNELS 3 Zrotation Xrotation Yrotation
			JOINT Spine2
			{
				OFFSET 0.00000 8.61717 0.00000
				CHANNELS 3 Zrotation Xrotation Yrotation
				JOINT Spine3
				{
					OFFSET 0.00000 8.61717 0.00000
					CHANNELS 3 Zrotation Xrotation Yrotation
					JOINT Neck
					{
						OFFSET 0.00000 11.07920 1.10792
						CHANNELS 3 Zrotation Xrotation Yrotation
						JOINT Neck1
						{
							OFFSET 0.00000 7.08032 0.00000
							CHANNELS 3 Zrotation Xrotation Yrotation
							JOINT Head
							{
								OFFSET 0.00000 7.08031 0.00000
								CHANNELS 3 Zrotation Xrotation Yrotation
								End site
								{
									OFFSET 0.00000 0.00000 0.00000
								}
							}
						}
					}
					JOINT RightShoulder
					{
						OFFSET -0.01000 7.91373 5.19711
						CHANNELS 3 Zrotation Xrotation Yrotation
						JOINT RightArm
						{
							OFFSET -18.41580 0.00000 0.00000
							CHANNELS 3 Zrotation Xrotation Yrotation
							JOINT RightForeArm
							{
								OFFSET -29.11090 0.00000 0.00000
								CHANNELS 3 Zrotation Xrotation Yrotation
								JOINT RightHand
								{
									OFFSET -24.65040 0.00000 0.00000
									CHANNELS 3 Zrotation Xrotation Yrotation
									JOINT RightHandThumb1
									{
										OFFSET -5.35114 -0.85590 3.97906
										CHANNELS 3 Zrotation Xrotation Yrotation
										JOINT RightHandThumb2
										{
											OFFSET -4.52789 0.00000 0.00000
											CHANNELS 3 Zrotation Xrotation Yrotation
											JOINT RightHandThumb3
											{
												OFFSET -2.46976 0.00000 0.00000
												CHANNELS 3 Zrotation Xrotation Yrotation
												End site
												{
													OFFSET 0.00000 0.00000 0.00000
												}
											}
										}
									}
									JOINT RightHandIndex1
									{
										OFFSET -14.26970 0.00000 2.88139
										CHANNELS 3 Zrotation Xrotation Yrotation
										JOINT RightHandIndex2
										{
											OFFSET -5.48836 0.00000 0.00000
											CHANNELS 3 Zrotation Xrotation Yrotation
											JOINT RightHandIndex3
											{
												OFFSET -3.01859 0.00000 0.00000
												CHANNELS 3 Zrotation Xrotation Yrotation
												End site
												{
													OFFSET 0.00000 0.00000 0.00000
												}
											}
										}
									}
									JOINT RightHandMiddle1
									{
										OFFSET -14.26970 0.00000 -0.09147
										CHANNELS 3 Zrotation Xrotation Yrotation
										JOINT RightHandMiddle2
										{
											OFFSET -6.17441 0.00000 0.00000
											CHANNELS 3 Zrotation Xrotation Yrotation
											JOINT RightHandMiddle3
											{
												OFFSET -3.56743 0.00000 0.00000
												CHANNELS 3 Zrotation Xrotation Yrotation
												End site
												{
													OFFSET 0.00000 0.00000 0.00000
												}
											}
										}
									}
									JOINT RightHandRing1
									{
										OFFSET -12.69180 0.00000 -3.06433
										CHANNELS 3 Zrotation Xrotation Yrotation
										JOINT RightHandRing2
										{
											OFFSET -5.62556 0.00000 0.00000
											CHANNELS 3 Zrotation Xrotation Yrotation
											JOINT RightHandRing3
											{
												OFFSET -3.56744 0.00000 0.00000
												CHANNELS 3 Zrotation Xrotation Yrotation
												End site
												{
													OFFSET 0.00000 0.00000 0.00000
												}
											}
										}
									}
									JOINT RightHandPinky1
									{
										OFFSET -11.11390 0.00000 -6.03719
										CHANNELS 3 Zrotation Xrotation Yrotation
										JOINT RightHandPinky2
										{
											OFFSET -4.52789 0.00000 0.00000
											CHANNELS 3 Zrotation Xrotation Yrotation
											JOINT RightHandPinky3
											{
												OFFSET -2.46976 0.00000 0.00000
												CHANNELS 3 Zrotation Xrotation Yrotation
												End site
												{
													OFFSET 0.00000 0.00000 0.00000
												}
											}
										}
									}
								}
							}
						}
					}
					JOINT LeftShoulder
					{
						OFFSET 0.01000 7.91373 5.19711
						CHANNELS 3 Zrotation Xrotation Yrotation
						JOINT LeftArm
						{
							OFFSET 18.41580 0.00000 0.00000
							CHANNELS 3 Zrotation Xrotation Yrotation
							JOINT LeftForeArm
							{
								OFFSET 29.11090 0.00000 0.00000
								CHANNELS 3 Zrotation Xrotation Yrotation
								JOINT LeftHand
								{
									OFFSET 24.65040 0.00000 0.00000
									CHANNELS 3 Zrotation Xrotation Yrotation
									JOINT LeftHandThumb1
									{
										OFFSET 5.35114 -0.85590 3.97906
										CHANNELS 3 Zrotation Xrotation Yrotation
										JOINT LeftHandThumb2
										{
											OFFSET 4.52789 0.00000 0.00000
											CHANNELS 3 Zrotation Xrotation Yrotation
											JOINT LeftHandThumb3
											{
												OFFSET 2.46977 0.00000 0.00000
												CHANNELS 3 Zrotation Xrotation Yrotation
												End site
												{
													OFFSET 0.00000 0.00000 0.00000
												}
											}
										}
									}
									JOINT LeftHandIndex1
									{
										OFFSET 14.26970 0.00000 2.88139
										CHANNELS 3 Zrotation Xrotation Yrotation
										JOINT LeftHandIndex2
										{
											OFFSET 5.48836 0.00000 0.00000
											CHANNELS 3 Zrotation Xrotation Yrotation
											JOINT LeftHandIndex3
											{
												OFFSET 3.01859 0.00000 0.00000
												CHANNELS 3 Zrotation Xrotation Yrotation
												End site
												{
													OFFSET 0.00000 0.00000 0.00000
												}
											}
										}
									}
									JOINT LeftHandMiddle1
									{
										OFFSET 14.26970 0.00000 -0.09147
										CHANNELS 3 Zrotation Xrotation Yrotation
										JOINT LeftHandMiddle2
										{
											OFFSET 6.17440 0.00000 0.00000
											CHANNELS 3 Zrotation Xrotation Yrotation
											JOINT LeftHandMiddle3
											{
												OFFSET 3.56744 0.00000 0.00000
												CHANNELS 3 Zrotation Xrotation Yrotation
												End site
												{
													OFFSET 0.00000 0.00000 0.00000
												}
											}
										}
									}
									JOINT LeftHandRing1
									{
										OFFSET 12.69180 0.00000 -3.06433
										CHANNELS 3 Zrotation Xrotation Yrotation
										JOINT LeftHandRing2
										{
											OFFSET 5.62556 0.00000 0.00000
											CHANNELS 3 Zrotation Xrotation Yrotation
											JOINT LeftHandRing3
											{
												OFFSET 3.56744 0.00000 0.00000
												CHANNELS 3 Zrotation Xrotation Yrotation
												End site
												{
													OFFSET 0.00000 0.00000 0.00000
												}
											}
										}
									}
									JOINT LeftHandPinky1
									{
										OFFSET 11.11390 0.00000 -6.03719
										CHANNELS 3 Zrotation Xrotation Yrotation
										JOINT LeftHandPinky2
										{
											OFFSET 4.52789 0.00000 0.00000
											CHANNELS 3 Zrotation Xrotation Yrotation
											JOINT LeftHandPinky3
											{
												OFFSET 2.46976 0.00000 0.00000
												CHANNELS 3 Zrotation Xrotation Yrotation
												End site
												{
													OFFSET 0.00000 0.00000 0.00000
												}
											}
										}
									}
								}
							}
						}
					}
					JOINT pCube4
					{
						OFFSET 0.00000 10.91090 1.10792
						CHANNELS 3 Zrotation Xrotation Yrotation
						End site
						{
							OFFSET 0.00000 0.00000 0.00000
						}
					}
				}
			}
		}
	}
	JOINT RightUpLeg
	{
		OFFSET -9.98441 0.00000 0.00000
		CHANNELS 3 Zrotation Xrotation Yrotation
		JOINT RightLeg
		{
			OFFSET 0.00000 -42.11790 0.00000
			CHANNELS 3 Zrotation Xrotation Yrotation
			JOINT RightFoot
			{
				OFFSET 0.00000 -45.00020 -0.00001
				CHANNELS 3 Zrotation Xrotation Yrotation
				JOINT RightForeFoot
				{
					OFFSET 0.00000 -3.74820 0.00000
					CHANNELS 3 Zrotation Xrotation Yrotation
					JOINT RightToeBase
					{
						OFFSET 0.00000 0.06325 14.43120
						CHANNELS 3 Zrotation Xrotation Yrotation
						End site
						{
							OFFSET 0.00000 0.00000 0.00000
						}
					}
				}
			}
		}
	}
	JOINT LeftUpLeg
	{
		OFFSET 9.98441 0.00000 0.00000
		CHANNELS 3 Zrotation Xrotation Yrotation
		JOINT LeftLeg
		{
			OFFSET 0.00000 -42.11800 0.00000
			CHANNELS 3 Zrotation Xrotation Yrotation
			JOINT LeftFoot
			{
				OFFSET 0.00000 -45.00070 0.00000
				CHANNELS 3 Zrotation Xrotation Yrotation
				JOINT LeftForeFoot
				{
					OFFSET 0.00000 -3.74824 0.00000
					CHANNELS 3 Zrotation Xrotation Yrotation
					JOINT LeftToeBase
					{
						OFFSET 0.00000 0.06325 14.43110
						CHANNELS 3 Zrotation Xrotation Yrotation
						End site
						{
							OFFSET 0.00000 0.00000 0.00000
						}
					}
				}
			}
		}
	}
}
MOTION
Frames: 4
Frame Time: 0.050000
-0.009762288000165627 0.04935250898215621 -0.006812679097983675 0.015115486730215962 -0.028304866686210486 -0.017924170194454185 4.833677887577224 1.9373787301202092 -2.234691417870692 -0.7322643619192167 3.4374104859942087 0.4231471879499041 -0.9245321584801599 -1.5636326013498931 2.1899466183349214 -1.041355955238017 -0.7718162923886648 -0.032624263899654955 1.2420147189902455 13.8517420419919 -2.7839548588773857 0.5271133625262319 -0.47819234233384433 -6.668785526030538 1.5936551840697035 -17.380652736069298 -0.6337930273665705 -15.40799861356215 4.717489479357428 -18.824739852524534 80.39345994909294 -12.312500294322863 39.05592495610681 3.3303751243053457 4.953407517181039 103.61376507581738 19.982971450671357 -0.9172481323189698 -5.685006442548346 4.496066883867257 -0.14136621255230972 -1.627469746129526 0.005934950539405637 0.0022407730607372743 -56.23558886184602 0.002830355315624283 -0.0006027113054404723 -56.196590120313694 -38.78634902826973 -0.004184618122772237 0.02694117045485838 -0.04522116763319845 0.020301425134986728 0.0471266642662325 -0.030988985011704127 -0.00420057681137591 -0.02813216913199841 -36.722483910770165 -0.018427082040445554 0.034214590720351 0.03598757875830189 0.03559446945478617 -0.02812569423419742 0.042046687633169544 0.027310701486139607 0.0014814530748303374 -19.720618385127555 -0.017818566362883505 0.02187348329823249 0.008313453780420473 -0.029102191095973392 -0.04466438535557772 -0.025050512330594323 -0.017524126996761435 0.029184122156738598 24.031834988626166 -0.016641069878793616 -0.030772636405788107 28.90846302909283 0.04819127412842536 -0.029191045156345515 28.823208545373443 -0.02776813863378534 -0.028081051147242186 10.63407045525667 2.497883504606241 14.748298628456144 -73.03713037158894 20.5323076287473 -11.509788060700956 -28.560063964143307 10.315470631584416 -86.39776248761663 -29.97351795169501 -11.564159786859642 9.15700797565158 -0.42814479529598315 0.0839924978469464 -8.133051340152354 0.003139634347432402 -0.04332147473695963 44.52855472197389 0.046166101858421016 -0.033071440443682175 44.5447434437026 12.416562396178412 0.009155300568107682 0.00260870804130042 -0.015884658758131488 0.03724373222474768 0.025437570926474324 -0.01472836625894843 0.04978290830823067 -0.04561461850043188 11.107423964331382 0.0032325617242644164 0.019790411722725325 0.027072467129775946 0.04969359845102976 -0.041145390500244974 -0.044926307112497454 -0.006538305668882056 0.043247491580250014 4.777536272526616 0.00817248033366774 0.018391253559696112 0.03676008314752731 0.0389114542299469 0.02815999463889272 0.03315301212732336 -0.0014477524651936508 -0.03868840840493447 -5.572022806002786 -0.022489722842400965 -0.001381237709699173 -6.689227422068372 0.035684671317469795 0.01730515394717931 -6.742195740959894 -0.0014678086424933941 0.02889441696947141 -0.02788428768161924 -0.015978547158707238 -0.0014122015884919241 8.0218393530693 3.5381166404210584 -19.19950057422217 0.023669428693375953 10.356262383042038 -0.012536405006610945 -5.596000279034328 -15.642896263103905 3.2073345887444176 0.04083130303337985 0.0341072181496037 -0.00916759287893717 0.02151965649223293 4.7159451556031495 0.024208827753503494 12.42930290406822 -8.281838292198325 6.877522894916358 0.03659979801252554 46.37257449324313 0.018973053436309544 -4.360125517810042 -14.761763776016217 -3.820872316116574 -0.03475926606694864 -0.02328042016115197 0.03456350112154473 0.008636100963533474 -10.779211529792311 0.041706608256291716 
-0.027562856640146467 -0.03268498905551215 0.00027505942710634863 0.039874027936545084 0.04692189559271193 -0.004934167310502387 4.593241241735802 2.0949546810219943 -2.1812041165661333 -0.6690264296229801 3.4476488578584084 0.4397013848499798 -0.8782121585801558 -1.5183002512195511 2.042208448337863 -0.9582551634060114 -0.7995367021713986 -0.06629453397688984 1.1881197202575524 13.60104021473786 -2.757120059041805 0.49866917927852183 -0.5923680045743829 -6.835097400674002 1.5562079600262833 -17.47926180023213 -0.6903990990767893 -14.751167633071837 4.534217747066751 -18.49533950616311 77.62917423933436 -10.912734674907673 37.42911926816595 4.3041354933492855 4.525149380811352 102.50421473708036 20.855467701542498 -0.7964836591265165 -6.060326597301881 4.565531549178376 -0.13195084559457998 -1.6211200199860276 0.02971216884081926 0.009543709589892561 -56.269144945642516 0.021045242610097447 -0.0029203154754806034 -56.274659420991284 -38.74589528025108 0.03283837244967728 0.013499046831853628 -0.02398858025138382 0.04883461485395026 0.02491185459736913 -0.009839279025955251 -0.0023424345738034336 0.006799641239106351 -36.64589621303654 -0.02286191463858474 0.005403791752187139 -0.02783376786382914 -0.009078656735089445 0.023467284170762468 0.020271070468076285 -0.02559635644320455 -0.0012077652757455104 -19.791751057668048 0.021009422058060983 -0.014945900152252597 0.019865079976362388 -0.047131719284812496 0.029793941365845945 0.027382424930129497 -0.04197951181651432 0.02356797362523345 24.022422880655125 -0.026130225922521632 -0.03146206250151374 28.88966281750704 0.0020455408852047296 0.03584944257657356 28.8522286038669 -0.028708668461762895 0.03711692580271454 10.276136210658413 2.4292361015940416 14.677436128381192 -71.90597519293698 20.728275101899623 -11.711394339290573 -26.92720946997788 8.876432607726628 -87.79062331721964 -29.337115135073663 -11.011156701511775 8.673427430009687 -0.4270557925334309 0.06932099505511537 -8.092860465313768 0.0021776236706898895 0.03394363021621246 44.599321932707966 0.016377360909475305 0.021714181391858635 44.59113025441912 12.469376631603867 -0.027563799420317642 0.011873083544662617 -0.0323838014811497 0.014385542099440141 0.017606372682401675 0.01853667274901858 0.007683022238311972 0.001813913335149773 11.13659914760885 0.015035126322955129 0.021456856484080283 0.04149603879503467 -0.03944004080659276 0.0087808049106212 0.01618805656367368 -0.006280241821303278 -0.004532870483359358 4.78896677866203 0.02573895494329701 -0.029375350636434656 0.01736107640472144 0.009538272975321761 -0.024971283114870305 -0.04216081870483024 0.010615217791720902 0.005335280301529686 -5.557118914853474 -0.03274221388969601 0.019201090873199773 -6.680349877989095 -0.025497904515920603 0.04062807383494044 -6.725020773253551 0.04703104450229841 0.018330594054425563 0.010154301911060174 0.008825410911770271 -0.024919648578918176 7.9968611162806855 3.4844743391712787 -19.246880928203122 0.04971805779782005 10.373025033580188 0.0605610133776887 -5.601410925422273 -15.698651849031753 3.207808121945229 -0.0005587026729455652 0.037647418259200746 0.035682554764216674 0.038863691541652506 4.7122325002363015 -0.03635132249311745 12.43646381461397 -8.213910696622133 6.9114759904333445 3.360090142199201e-05 46.40744506076501 -0.03323884425473834 -4.294229523907242 -14.759391778185615 -3.814322133406437 0.043973400326927224 0.027424931153219947 -0.007917166050319118 -0.00402085887991495 -10.7211446678237 0.032996032683226866 
-0.018641918199673087 -0.032708005948695905 -0.036235878382518204 -0.022324924110401337 0.023396958443323422 -0.04072446110648432 4.4190993306380975 2.3061711501497095 -2.1543481630199572 -0.7362884357537729 3.448523042084381 0.4297149950462571 -0.8214031359170894 -1.4930418647781563 1.9834937099297563 -0.8462521287834776 -0.7203572573816592 -0.17729727418251537 1.1001579998507296 13.216297691277063 -2.738231367998163 0.4634322683590756 -0.7201585704010288 -6.933178641023473 1.4990897795010445 -17.48212676626027 -0.627163343082569 -13.747374303188083 4.347381234267425 -18.06911146695303 74.77687795640166 -8.359755672002635 35.142777819424474 4.8222461159001915 3.7651674250139147 101.92255683515799 21.475718696473933 -0.7617216612354761 -6.1524005029805195 4.5188049034338444 -0.1558379820668968 -1.5821593305584603 0.03937156321535137 -0.017548094937920068 -56.230508475710735 0.006818678813467527 0.026823713362380687 -56.255001822059214 -38.812028658303014 0.005017432353670555 -0.006265980556690528 0.004153450585231114 -0.047788719999929355 0.040381977735295484 -0.0341669421152078 -0.0002378700657774683 0.010675340924842363 -36.66456514068887 -0.04828482208406204 0.026773993093644827 -0.02720768403125924 -0.030492207779647035 0.02079694108611813 -0.027998055091445238 0.0016103126597843851 0.022549962261655242 -19.766283722933107 0.034342917119336354 -0.03126669749478563 -0.020308168790195126 0.021096773428060538 -0.039482498629026204 0.022826501721054965 0.046028437298566566 0.02256238961628021 24.085901096037993 -0.020921205447063454 0.03751772327987763 28.908769870063423 0.029032153848520204 -0.011056725764459608 28.86616851210433 -0.021906352218975963 0.032476120579787895 9.728421030904537 2.2996414518014534 14.545224757501614 -71.08979463632855 20.789832874868402 -11.631718069718803 -25.62647653103506 7.900321342978087 -88.26358449977168 -28.466357118831365 -10.373854570138093 7.955891822522606 -0.4802631132947439 0.020172648796602993 -8.17335747552464 -0.026070391694372582 -0.04942385279757243 44.538517254023034 -0.00801771450409365 -0.014330252030970034 44.51766567615129 12.447659551061703 -0.013673827923348938 -0.02443651468429377 0.04717875457919692 -0.038077168739266594 -0.010221821555179172 0.007945028132845132 -0.005489325348598333 0.0031008694794451646 11.060316577940782 -0.01204710397893493 0.0266854285833627 -0.04540082397427725 -0.036871130720136126 0.018558005261575597 -0.015321812500181732 0.03042662540391274 -0.033677062740908724 4.792659800919771 -0.0015760561447278898 0.025629193610402955 -0.02244398874064561 -0.01652582801985791 -0.0027586554201766765 -0.025785839700940946 0.013037909705805328 0.02649855188359962 -5.648232550720494 0.01785095484229482 -0.030526888181109026 -6.757723639402724 0.032409344814625866 -0.042665437424843466 -6.713020302060629 -0.024475344855049756 0.02955632296084058 -0.01178341595898661 -0.019851981732554886 -0.019501902096904365 8.035210221369677 3.505899406485406 -19.2401135520324 0.02857963942955916 10.407106594267397 0.03393678927086244 -5.612368185091258 -15.6657589183916 3.1825406235176774 -0.0325963254951629 -0.04374295481917604 0.0481836231205851 -0.01920444394682639 4.707165006169888 0.004222317752959211 12.419752902890286 -8.202602763469605 6.874638721596941 0.01991242062458936 46.3361230611986 -0.018578385004794477 -4.372154589473585 -14.769936863609464 -3.876307397203295 -0.012081074240428353 -0.04438706661181742 -0.0043316169147001125 -0.04454473538713469 -10.776430196414598 -0.008415724052777207 
0.026827336652293234 0.04423747739921037 0.0033153569036810573 -0.03691046641906064 -0.020613503777455598 0.026933976042432986 4.227379971013741 2.592074013922979 -2.0068925450059694 -0.6865821393729092 3.509348460352501 0.3954172790755034 -0.8247330002750749 -1.324405820677986 1.8810976790991185 -0.7796002898000917 -0.7766267623888722 -0.17324135980621172 0.9733416247082809 12.70515651412503 -2.7287940719242494 0.40245923045092025 -0.8311403926894289 -6.992005350361909 1.37613546325664 -17.47943438697984 -0.6196609228565075 -12.731157296616463 4.081806397620329 -17.52303619929939 71.50648866408697 -5.433594827034455 32.09371446922131 4.3180660084451095 2.601311589936338 101.35253936184812 22.116383287237635 -0.7284717466435863 -6.296262211191493 4.537667022754854 -0.14420336148314505 -1.61176256377344 0.028666622069490916 0.03924944723310456 -56.20955681200895 -0.03465795432679447 0.02708930546276941 -56.23304950197918 -38.781294122724915 -0.027843344357954842 0.019861735314444975 0.01758321398866433 0.04436200319254493 0.04202520431883869 0.04581405321729253 -0.04229870503631909 0.04874799328127968 -36.718786047173325 -0.014349626563539459 -0.003950711823508299 -0.011273105558363826 0.028386915840305903 0.03176016158311383 -0.04334343730457945 0.0014558654538654832 0.027427547564363157 -19.793458468136393 0.04769068258354855 -0.030345342197361617 0.015737432827925585 -0.015838286148249493 0.012184743805528022 -0.007319182897495543 -0.0174528571535639 0.016236671516610016 24.04043629190632 -0.031728671910643186 0.03030466218104056 28.87012565528619 0.033157283736903145 0.016026682072135104 28.82278785415137 0.04021350177478843 -0.006768504456439012 9.204690494302868 2.2382106091043616 14.437257486305828 -70.14933310951943 20.146350907386346 -11.408604582661875 -24.702143063776397 7.163263447488674 -88.76444746222056 -28.086687562129104 -9.917857013963639 7.324944742395436 -0.47880893916329686 0.09458934722856148 -8.100059611078857 -0.002003759806124422 -0.038181810246308345 44.53875836976227 -0.005288293491848601 0.043967756303225344 44.56492930087446 12.44897485826441 -0.03402395203948559 -0.030847474540946825 0.004673988264863111 -0.027941549988974267 0.04707712580642201 0.02423243765419057 0.011957948016210895 0.001112249212843978 11.095322229930458 -0.02923412595676476 -0.040908559611132204 -0.02454192701329533 -0.03227011918855798 0.005260168684953201 0.009477799083224034 0.01206293457937928 0.004977431331309467 4.786057573966464 0.04375682522233025 -0.017753897741951116 0.028003027353173303 0.007582039356223014 0.03203148750914179 0.00856063809450722 -0.0008814004449987229 0.04634955990446122 -5.632779433081565 0.0026323999392069398 -0.02261334805018915 -6.732598472667454 0.008339272464383825 0.014271792121930362 -6.760877339742852 -0.0015608977701966834 0.0038972578607972975 -0.04516417737204911 0.0010083899992097227 -0.048229124194672256 8.013060003147368 3.4964213764556322 -19.1786718715716 0.011817281523594207 10.41809785200353 -0.02930447074277927 -5.588769908024612 -15.67871569485809 3.1751966179019417 -0.026574760011377287 0.005782733657625439 -0.008664285017821797 -0.04848964681833457 4.665540714806628 0.0004662483459355614 12.457449003202184 -8.189641487422325 6.913905236563854 -0.020042616386378678 46.392391623883285 0.027446770739403825 -4.347242389952265 -14.776892719119848 -3.8331409252731428 0.04027532520725695 0.042679168340599864 0.008559781335048427 0.03427893071718555 -10.741127505424345 -0.03950802393018152 
